<?xml version="1.0" encoding="UTF-8" standalone="no"?>
<!-- Created with Inkscape (http://www.inkscape.org/) -->

<svg
   xmlns:dc="http://purl.org/dc/elements/1.1/"
   xmlns:cc="http://creativecommons.org/ns#"
   xmlns:rdf="http://www.w3.org/1999/02/22-rdf-syntax-ns#"
   xmlns:svg="http://www.w3.org/2000/svg"
   xmlns="http://www.w3.org/2000/svg"
   xmlns:sodipodi="http://sodipodi.sourceforge.net/DTD/sodipodi-0.dtd"
   xmlns:inkscape="http://www.inkscape.org/namespaces/inkscape"
   id="svg3055"
   version="1.1"
   inkscape:version="0.48.4 r9939"
   width="176.29997"
   height="286.30978"
   sodipodi:docname="robot.svg"
   inkscape:export-filename="/home/jan/Research/talks/GRL-easy/robot.png"
   inkscape:export-xdpi="300"
   inkscape:export-ydpi="300">
  <metadata
     id="metadata3061">
    <rdf:RDF>
      <cc:Work
         rdf:about="">
        <dc:format>image/svg+xml</dc:format>
        <dc:type
           rdf:resource="http://purl.org/dc/dcmitype/StillImage" />
        <dc:title />
      </cc:Work>
    </rdf:RDF>
  </metadata>
  <defs
     id="defs3059" />
  <sodipodi:namedview
     pagecolor="#ffffff"
     bordercolor="#666666"
     borderopacity="1"
     objecttolerance="10"
     gridtolerance="10"
     guidetolerance="10"
     inkscape:pageopacity="0"
     inkscape:pageshadow="2"
     inkscape:window-width="958"
     inkscape:window-height="1024"
     id="namedview3057"
     showgrid="false"
     inkscape:zoom="1.3642173"
     inkscape:cx="62.451229"
     inkscape:cy="80.59598"
     inkscape:window-x="0"
     inkscape:window-y="27"
     inkscape:window-maximized="0"
     inkscape:current-layer="svg3055"
     fit-margin-top="0"
     fit-margin-left="0"
     fit-margin-right="0"
     fit-margin-bottom="0" />
  <path
     style="fill:#ffffff;fill-opacity:1;stroke:none"
     d="M 18.34375 59.28125 C 16.083466 59.28125 14.25 61.114716 14.25 63.375 L 14.25 64.9375 L 9.625 64.9375 C 7.3647165 64.9375 5.5625 66.770966 5.5625 69.03125 L 5.5625 170.28125 C 5.5625 172.54153 7.3647165 174.34375 9.625 174.34375 L 164.625 174.34375 C 166.88528 174.34375 168.71875 172.54153 168.71875 170.28125 L 168.71875 69.03125 C 168.71875 66.770966 166.88528 64.9375 164.625 64.9375 L 156 64.9375 L 156 63.375 C 156 61.114716 154.19778 59.28125 151.9375 59.28125 L 18.34375 59.28125 z "
     id="rect2987" />
  <rect
     style="fill:#ffffff;fill-opacity:1;stroke:none"
     id="rect2992"
     width="86.300972"
     height="57.793144"
     x="41.984257"
     y="199.23132"
     ry="4.0799341" />
  <path
     style="fill:#000000"
     d="m 115.37224,284.8194 c -1.5125,-0.82055 -2.75227,-2.04003 -2.75504,-2.70997 -0.003,-0.66993 -1.79093,-3.46806 -3.97368,-6.21806 -2.18275,-2.75 -5.56019,-7.25 -7.5054,-10 -3.536756,-5 -3.536756,-5 -14.524656,-5 -6.043337,0 -10.988638,0.32049 -10.989554,0.7122 -9.16e-4,0.39171 -2.473719,3.48268 -5.495118,6.86883 -3.284189,3.68065 -5.919326,7.7382 -6.552411,10.08929 -1.165129,4.32696 -2.682789,5.36558 -6.456373,4.41847 -1.582883,-0.39727 -2.497764,-1.33285 -2.497764,-2.55427 0,-2.15476 5.746392,-12.39019 9.386569,-16.71929 2.367217,-2.81523 2.367217,-2.81523 -5.000619,-2.9705 -7.070583,-0.149 -16.229036,-1.7162 -19.38595,-3.31733 -1.150152,-0.58333 -1.544973,-2.94926 -1.692827,-10.14408 -0.607823,-29.57781 -0.168898,-26.52567 -4.359025,-30.3112 -4.046323,-3.65561 -13.00398,-6.27689 -17.550463,-5.1358 -3.679054,0.92339 -6.3976854,-0.99007 -6.3976854,-4.50289 0,-1.72528 0.6289374,-3.23755 1.4827174,-3.56517 3.045482,-1.16866 17.040751,1.50619 21.800954,4.16672 4.716329,2.63601 4.716329,2.63601 4.874773,-0.19949 0.08714,-1.55952 0.0745,-3.72427 -0.02809,-4.81057 -0.102593,-1.08629 0.330701,-3.22379 0.962877,-4.75 0.879956,-2.1244 1.824253,-2.77492 4.028089,-2.77492 1.583274,0 2.87868,-0.39754 2.87868,-0.88342 0,-1.70943 5.32288,-1.86806 14.364497,-0.42809 5.024527,0.8002 10.035503,1.84879 11.135503,2.33019 1.1,0.48141 3.888276,0.7949 6.196168,0.69665 4.196169,-0.17864 4.196169,-0.17864 4.101717,-5.69699 -0.05195,-3.03509 0.02557,-5.96834 0.172253,-6.51834 0.146687,-0.55 0.213415,-2.0125 0.148283,-3.25 -0.112296,-2.13363 -0.519237,-2.24773 -7.868421,-2.20609 -4.2625,0.0241 -11.096119,0.43122 -15.18582,0.9046 -4.951834,0.57317 -8.292401,0.50144 -10,-0.21474 -1.410299,-0.59149 -9.31418,-1.19845 -17.56418,-1.3488 -8.25,-0.15035 -15.930697,-0.29847 -17.068215,-0.32917 -3.319773,-0.0896 -10.4317854,-6.11332 -10.4317854,-8.83554 0,-1.29346 -0.484087,-3.25627 -1.075749,-4.3618 -0.591663,-1.10553 -1.263194,-8.61345 -1.492293,-16.68426 -0.22909895,-8.07081 -0.66201295,-16.11863 -0.96203195,-17.88405 -0.300019,-1.76542 0.156868,-5.92034 1.01530295,-9.23315 1.091178,-4.21099 1.709744,-12.79774 2.055841,-28.53858 0.495048,-22.515283 0.495048,-22.515283 4.085481,-29.047275 2.072742,-3.77089 4.7070104,-7.099022 6.2319414,-7.873426 4.317965,-2.192789 21.99248,-3.604547 30.086719,-2.403188 8.268476,1.227219 24.03897,0.222606 24.085548,-1.5343 0.01692,-0.638127 0.243498,-4.256276 0.503512,-8.040332 C 68.880327,33.477419 67.623718,30.397504 59.160111,21.96132 51.800437,14.625493 51.800437,14.625493 46.320043,14.758431 37.296624,14.977314 33.793039,9.4392877 38.909763,3.0451957 c 1.957298,-2.44592801 3.036966,-2.86780601 7.677589,-3.00000001 5.400004,-0.153826 5.400004,-0.153826 6.467448,4.10821501 0.753448,3.008332 1.949915,4.805725 4.067444,6.1103173 1.65,1.016552 4.151821,3.161077 5.559602,4.765611 1.407781,1.604535 3.740351,3.846114 5.183489,4.981286 1.443138,1.135173 3.666317,4.047729 4.940398,6.472348 2.233506,4.250435 2.528988,6.849461 2.79825,24.613084 0.02042,1.346885 2.934826,1.927192 14.268261,2.841044 7.75,0.624909 7.75,0.624909 7.75,-2.337966 0,-1.629582 0.675,-3.523076 1.5,-4.207765 0.825,-0.684689 1.527296,-2.427289 1.560676,-3.872445 0.0334,-1.445155 0.82087,-6.47197 1.75,-11.170699 1.54032,-7.789654 2.13031,-9.045365 6.68932,-14.237381 2.75,-3.131831 5.7324,-5.699916 6.62756,-5.706856 0.89515,-0.0069 2.18143,-0.679999 2.85839,-1.495687 0.67696,-0.815687 3.56725,-2.2195583 6.42287,-3.1197143 3.78836,-1.194175 5.65736,-2.447411 6.91319,-4.635563 1.66474,-2.90065201 1.91752,-2.98471101 7.71445,-2.56539901 3.29632,0.238435 6.47126,0.91146601 7.05542,1.49562501 1.27908,1.279076 -0.63658,8.8633433 -2.91939,11.5581193 -1.67225,1.974031 -6.60292,2.297246 -10.78555,0.707015 -2.36601,-0.899557 -3.02818,-0.713542 -4.8151,1.352662 -1.13951,1.317606 -4.0778,2.958015 -6.52953,3.645352 -4.16156,1.166686 -7.8531,4.228488 -11.60309,9.623741 -1.34695,1.937911 -3.70075,24.199451 -2.68788,25.42123 0.22797,0.275 4.98969,0.545574 10.58158,0.601276 12.50127,0.124526 26.35652,1.157597 33.66708,2.510274 8.18643,1.51474 15,3.893439 15,5.236682 0,0.653125 1.05836,2.75446 2.35191,4.669633 1.29355,1.915174 2.66631,5.182249 3.05057,7.260167 0.38427,2.077917 1.59935,6.577917 2.70018,10 1.92321,5.978528 1.95444,7.160988 0.79823,30.221968 -1.36668,27.25883 -1.36737,26.27698 0.0261,37.39007 0.85789,6.84185 0.7808,8.77432 -0.44456,11.14391 -0.81534,1.57668 -1.48243,3.50336 -1.48243,4.2815 0,2.35783 -3.73868,6.34638 -8.06018,8.59887 -3.60434,1.87869 -5.92263,2.14917 -19.7616,2.30563 -9.84616,0.11131 -17.2229,-0.27319 -19.83076,-1.03367 -2.92268,-0.85228 -4.94112,-0.9111 -6.8151,-0.19861 -1.46441,0.55676 -5.98171,1.0123 -10.03844,1.0123 -4.31677,0 -7.65983,0.45942 -8.0605,1.10772 -0.41174,0.66621 -2.129216,0.87814 -4.309006,0.53171 -1.99343,-0.31682 -4.23731,-0.19508 -4.98642,0.27051 -2.00746,1.24772 -3.18591,8.95304 -2.04023,13.34006 0.97933,3.75 0.97933,3.75 9.19078,3.83759 26.041906,0.27778 29.753156,0.52554 31.318386,2.09076 1.04579,1.0458 1.74931,4.25982 2.12171,9.69312 0.37519,5.47391 0.95971,8.12853 1.78982,8.12853 0.67797,0 3.87617,-1.17499 7.10711,-2.61109 9.31777,-4.14159 14.35675,-5.36649 22.12443,-5.37809 6.25424,-0.009 7.24563,0.22954 7.2182,1.73918 -0.0538,2.95919 -2.5559,5.30359 -5.59682,5.24401 -5.35277,-0.10487 -14.46939,1.83995 -17.17673,3.66426 -1.48206,0.99867 -5.61965,2.9604 -9.19465,4.35939 -6.5,2.54363 -6.5,2.54363 -6.5,15.8538 0,7.3206 0.3375,13.52087 0.75,13.77838 0.4125,0.25751 0.75,1.50866 0.75,2.78035 0,2.01954 -0.63289,2.3961 -5.00111,2.97557 -2.89575,0.38413 -5.81492,0.22788 -6.93426,-0.37117 -2.48845,-1.33178 -15.06463,-1.36066 -15.06463,-0.0346 0,0.55 0.46114,1 1.02475,1 0.56361,0 1.41332,1.022 1.88823,2.27112 0.90431,2.37852 9.53652,13.46986 11.88935,15.27638 0.96604,0.74173 1.16152,2.12826 0.66968,4.75 -0.77192,4.11469 -2.21913,4.57338 -6.72201,2.13053 z m 4.25,-3.3447 c 0,-1.05416 -0.35437,-2.06666 -0.78748,-2.25 -1.43467,-0.60728 -11.21252,-13.28133 -11.21252,-14.53367 0,-0.67611 -0.92731,-1.72557 -2.06068,-2.33214 -1.31832,-0.70554 -1.94876,-1.88904 -1.75,-3.28518 0.28863,-2.02745 0.93303,-2.20287 9.07941,-2.47155 4.82281,-0.15906 9.44159,0.0874 10.26397,0.54757 2.24108,1.25417 8.7517,0.29296 7.59386,-1.12113 -0.51213,-0.62548 -0.86261,-7.87531 -0.77885,-16.11075 0.15229,-14.97352 0.15229,-14.97352 6.65229,-17.51298 3.575,-1.39671 7.625,-3.27097 9,-4.16503 2.83409,-1.84281 8.51989,-3.75972 11.5,-3.87711 7.72744,-0.3044 9.53364,-0.61664 9.95756,-1.72136 0.3423,-0.89201 -0.8717,-1.2469 -4.23894,-1.23918 -5.27863,0.0121 -11.04104,1.57649 -19.24768,5.22535 -3.04098,1.35209 -7.13953,2.76048 -9.10788,3.12974 -3.57882,0.67139 -3.57882,0.67139 -4.11717,-7.95778 -0.33823,-5.42139 -1.0581,-9.14891 -1.93651,-10.02732 -1.06424,-1.06424 -5.92521,-1.50603 -20.35376,-1.84987 -10.425586,-0.24844 -19.241266,-0.46954 -19.590396,-0.49133 -1.22946,-0.0767 -1.91167,-10.5977 -0.99957,-15.41532 1.06768,-5.6393 2.29372,-6.74282 7.16222,-6.44645 1.94033,0.11812 4.15621,-0.17357 4.92418,-0.6482 0.767966,-0.47464 4.130426,-0.8139 7.472126,-0.75393 3.3417,0.06 8.01438,-0.38081 10.38372,-0.97951 3.24864,-0.82088 5.70752,-0.77226 10,0.19774 3.36377,0.76013 11.12191,1.21722 18.96641,1.11745 11.13327,-0.1416 13.89614,-0.49295 17.12959,-2.17832 8.23388,-4.29173 10.3662,-9.9676 9.1217,-24.2804 -0.50718,-5.83307 -0.46855,-13.78223 0.0948,-19.5 0.52305,-5.30897 0.89763,-13.47767 0.83241,-18.15267 -0.0652,-4.675 0.19629,-10.81369 0.58113,-13.64153 0.53284,-3.91539 0.19727,-6.7771 -1.40713,-11.999997 -1.15879,-3.77216 -2.4074,-8.433473 -2.77472,-10.358473 -0.36732,-1.925 -1.72181,-5.066961 -3.00997,-6.982135 -1.28817,-1.915173 -2.34212,-4.016508 -2.34212,-4.669633 0,-1.323678 -6.63875,-3.663526 -15,-5.286795 -5.54751,-1.077004 -18.51773,-1.918262 -36,-2.334986 -9.47234,-0.225792 -9.49935,-0.23373 -9.27767,-2.726451 0.12228,-1.375 0.41092,-4.75 0.64142,-7.5 1.59776,-19.062103 1.59332,-19.049087 9.29398,-27.228598 0.63675,-0.676347 3.28582,-1.7989 5.88682,-2.494561 2.81989,-0.754204 5.32586,-2.175622 6.20728,-3.52084 1.66566,-2.542109 3.75892,-2.782473 9.43135,-1.082974 3.4668,1.038678 4.12745,0.95278 5.7683,-0.75 1.01921,-1.057665 2.14498,-3.3270513 2.50172,-5.0430813 0.55738,-2.681122 0.32493,-3.206755 -1.65229,-3.736346 -4.70628,-1.260561 -6.8639,-0.695929 -8.54699,2.236686 -1.18184,2.059248 -3.13307,3.346819 -6.8451,4.516932 -2.85562,0.9001563 -5.74591,2.3040273 -6.42287,3.1197143 -0.67696,0.815688 -1.96324,1.488746 -2.85839,1.495687 -0.89516,0.0069 -3.87756,2.575025 -6.62756,5.706856 -4.55901,5.192016 -5.149,6.447727 -6.68932,14.237381 -0.92913,4.698729 -1.71663,9.725544 -1.75,11.170699 -0.0334,1.445156 -0.73568,3.187756 -1.56068,3.872445 -0.825,0.684689 -1.499996,2.539789 -1.499996,4.122445 0,2.728562 -0.22005,2.874297 -4.25,2.814634 -6.9355,-0.10268 -20.737643,-1.591389 -21.461059,-2.314804 -0.368943,-0.368943 -0.697386,-5.272386 -0.729873,-10.89654 -0.05017,-8.684693 -0.408171,-10.890091 -2.375579,-14.634132 -1.274081,-2.424619 -3.49726,-5.337175 -4.940398,-6.472348 -1.443138,-1.135172 -3.775708,-3.370629 -5.183489,-4.967681 -1.407781,-1.597052 -4.247102,-3.97764 -6.309602,-5.290197 -3.140085,-1.9983223 -3.75,-2.9440813 -3.75,-5.8149053 0,-1.885641 -0.403782,-3.677989 -0.897294,-3.982996 -2.011319,-1.24306401 -7.2411,0.822139 -9.25929,3.656426 -2.093137,2.93954 -2.094172,2.973786 -0.148727,4.9192313 2.138783,2.138783 4.172201,2.454861 8.884253,1.380983 2.854563,-0.650557 3.6701,-0.117641 11.190892,7.312727 9.226858,9.115922 10.391591,11.797028 10.175194,23.42235 -0.233587,12.548841 -0.127266,12.354314 -7.244326,13.254359 -6.925472,0.875817 -15.244201,0.745498 -22.423394,-0.351278 -5.623278,-0.859077 -22.836604,0.865828 -25.924691,2.597849 -1.18106,0.662423 -3.695556,4.025787 -5.5877694,7.474142 -3.440387,6.269735 -3.440387,6.269735 -4.091996,29.269735 -0.358385,12.65 -1.13463,24.575 -1.724987,26.5 -1.206123,3.93285 -1.19378,11.89453 0.04573,29.5 1.16454,16.54057 1.788423,18.77139 6.234731,22.29358 3.7171404,2.94456 3.7816674,2.95554 21.5000004,3.65686 9.774418,0.38689 25.828684,0.62125 35.676146,0.52079 17.904478,-0.18265 17.904478,-0.18265 17.257118,6.67306 -0.35606,3.77064 -0.65057,8.76821 -0.65448,11.10571 -0.0071,4.25 -0.0071,4.25 -6.948093,4.25 -3.817541,0 -7.18735,-0.39863 -7.488465,-0.88584 -0.301115,-0.48722 -5.137321,-1.47077 -10.747125,-2.18568 -7.823557,-0.99703 -10.291713,-1.02362 -10.594868,-0.11416 -0.217374,0.65213 -1.677401,1.18568 -3.244505,1.18568 -3.24529,0 -3.531101,0.61785 -4.510282,9.75 -0.394543,3.67964 -1.143838,6.24255 -1.821959,6.23188 -0.633497,-0.01 -3.615851,-1.37617 -6.627454,-3.03602 -5.682822,-3.13209 -17.752013,-5.61821 -19.37848,-3.99174 -1.676921,1.67692 0.509147,3.04588 4.863917,3.04588 8.016079,0 14.458411,1.97648 18.580303,5.70036 4.27149,3.85904 4.08177,2.5163 4.331355,30.65515 0.07855,8.85552 0.07855,8.85552 6.078546,10.77262 3.943181,1.25992 8.999528,1.93384 14.75,1.96592 10.112528,0.0564 10.402652,0.436 5.343882,6.99184 -1.873365,2.42776 -4.765694,6.741 -6.427397,9.58498 -2.3786,4.07094 -2.720891,5.28614 -1.609137,5.71276 1.507116,0.57834 2.780694,-1.26734 3.78677,-5.4878 0.341431,-1.43229 3.103681,-5.3868 6.138333,-8.7878 3.034652,-3.401 5.517549,-6.5759 5.517549,-7.05534 0,-0.47944 3.9375,-0.80279 8.75,-0.71857 4.8125,0.0842 10.40593,-0.19597 12.42984,-0.62265 3.57281,-0.75321 3.77442,-0.63668 6.931496,4.00638 1.78841,2.63018 4.92397,6.70573 6.9679,9.05677 2.04393,2.35103 4.4412,5.80235 5.32726,7.66958 2.14356,4.51722 5.5935,6.14498 5.5935,2.63913 z M 62.622244,255.45777 c -6.325,-0.37786 -13.371097,-1.31902 -15.657994,-2.09147 -4.157994,-1.40446 -4.157994,-1.40446 -4.486622,-9.93969 -0.637463,-16.55638 -0.04678,-38.15897 1.120445,-40.97689 1.896318,-4.57811 8.582366,-4.70494 29.024171,-0.55053 5.741957,1.16694 10.738153,1.54191 15.39775,1.15561 3.79377,-0.31451 13.619596,-0.29591 21.835186,0.0413 14.88483,0.61101 14.94124,0.62229 16.01739,3.2042 1.40669,3.37496 1.77797,37.26834 0.47025,42.92864 -1.00213,4.3376 -1.00213,4.3376 -11.61135,4.13757 -5.83508,-0.11002 -12.85923,0.32692 -15.609226,0.97099 -6.46031,1.51305 -21.961293,1.9888 -36.5,1.12024 z m 34.5,-3.21654 c 2.75,-0.67379 9.811116,-1.18331 15.691366,-1.13227 10.69137,0.0928 10.69137,0.0928 11.36972,-2.99571 1.12037,-5.10101 0.78991,-36.95172 -0.41472,-39.97188 -1.23259,-3.09026 2.81069,-2.74479 -37.646366,-3.2166 -10.629277,-0.12396 -16.68966,-0.66423 -20.79879,-1.85416 -3.189335,-0.92358 -8.647241,-1.67924 -12.12868,-1.67924 -6.086294,0 -6.377571,0.11511 -7.568912,2.99127 -0.846512,2.04366 -1.196033,8.61705 -1.103319,20.75 0.197678,25.86887 -0.01401,24.52025 4.099701,26.1188 7.377529,2.86684 38.26616,3.49722 48.5,0.98979 z m -48,-76.89835 c -1.65,-0.51676 -9.75,-1.09691 -18,-1.28921 -23.7459714,-0.55353 -24.2834554,-1.13719 -25.5866734,-27.78475 -0.574196,-11.74086 -0.531964,-19.51219 0.120735,-22.21726 0.552104,-2.28816 1.222614,-8.21029 1.490022,-13.16029 0.267408,-4.95 0.763821,-11.925 1.10314,-15.5 0.339319,-3.575 0.533073,-10.155852 0.430565,-14.624116 -0.148535,-6.474495 0.245952,-9.043862 1.9427854,-12.653718 2.954674,-6.285798 5.171491,-8.077992 9.209979,-7.445843 3.285456,0.514277 10.475794,-0.723167 14.328105,-2.46584 1.273012,-0.575873 4.465306,-0.522975 8.5,0.140849 3.911503,0.643556 12.380792,0.812641 21.461342,0.428465 8.989597,-0.380327 20.81006,-0.15081 29.5,0.572801 7.974996,0.664077 21.508906,1.362136 30.075356,1.551242 14.83448,0.327474 33.41611,2.64614 37.17464,4.638752 0.9625,0.510277 1.75,1.811943 1.75,2.892592 0,1.080649 0.36678,1.964816 0.81507,1.964816 0.71237,0 2.63694,5.122465 6.31091,16.797193 0.67375,2.140957 0.7952,10.381777 0.34634,23.499997 -0.3802,11.11155 -0.78658,27.92155 -0.90307,37.35557 -0.23005,18.63079 -0.69883,20.4243 -6.2948,24.08331 -2.3981,1.56804 -5.70043,1.77551 -29.73607,1.86821 -27.81593,0.10728 -61.687348,0.92871 -74.038376,1.79552 -3.85,0.2702 -8.35,0.0685 -10,-0.44829 z m 29.404394,-2.60228 c 10.227586,-0.23322 32.381012,-0.54632 49.229832,-0.69577 41.51808,-0.36828 38.77482,1.77716 39.38987,-30.80597 0.23201,-12.29112 0.66317,-28.37903 0.95812,-35.75091 0.30038,-7.50737 0.11176,-14.76557 -0.42878,-16.5 -3.43838,-11.032627 -5.52977,-16.59658 -6.23837,-16.59658 -0.44829,0 -0.81507,-0.884167 -0.81507,-1.964816 0,-1.080649 -0.7875,-2.382315 -1.75,-2.892592 -3.79282,-2.010791 -21.67621,-4.092536 -39.75,-4.627165 -10.45,-0.309114 -20.574996,-0.801045 -22.499996,-1.09318 -1.925,-0.292135 -15.65,-0.652869 -30.5,-0.801633 -14.85,-0.148763 -27.45,-0.4207 -28,-0.604304 -0.55,-0.183605 -1.675,-0.08644 -2.5,0.21592 -4.32487,1.585058 -13.107893,2.957507 -15.340569,2.397141 -2.09255,-0.525197 -2.978967,-0.05635 -4.944697,2.615359 -3.846739,5.228271 -4.842116,8.944182 -4.648086,17.352081 0.224331,9.720879 -1.5878514,37.715929 -2.7295304,42.166499 -0.460415,1.79482 -0.585827,10.82721 -0.278693,20.07199 0.498548,15.0064 0.794361,17.19044 2.7588434,20.36903 1.21023,1.9582 3.514175,4.10453 5.119876,4.76963 1.685367,0.69811 9.184777,1.34422 17.741157,1.52851 8.151934,0.17557 16.171699,0.7753 17.821699,1.33273 1.65,0.55744 4.306977,0.77154 5.904394,0.47579 1.597416,-0.29575 11.272416,-0.72854 21.5,-0.96176 z M 29.122244,156.70242 c -1.65,-0.88489 -4.737414,-3.28561 -6.860921,-5.33496 -3.860921,-3.72607 -3.860921,-3.72607 -3.880127,-16.10108 -0.01629,-10.49398 0.393071,-13.81903 2.693098,-21.87501 6.43659,-22.54453 14.063632,-31.864082 28.338987,-34.627684 8.443136,-1.634528 14.392485,-1.697222 19.375811,-0.204181 4.638496,1.389727 7.059908,5.562347 7.366144,12.693465 0.109554,2.55112 0.721587,7.1134 1.360073,10.1384 2.900571,13.74225 0.919783,29.2187 -4.555095,35.59021 -1.285883,1.49648 -2.371589,3.21338 -2.41268,3.81533 -0.04109,0.60195 -3.36755,4.01946 -7.392134,7.59446 -5.729359,5.08934 -8.588728,6.86243 -13.17529,8.16998 -7.599557,2.1665 -16.963048,2.22983 -20.857866,0.14107 z m 18.857866,-2.14107 c 4.586562,-1.30755 7.445931,-3.08064 13.17529,-8.16998 4.024584,-3.575 7.351044,-6.99251 7.392134,-7.59446 0.04109,-0.60195 1.126797,-2.31885 2.41268,-3.81533 4.991058,-5.80845 7.090001,-20.32785 4.566725,-31.59021 -0.554511,-2.475 -1.246573,-6.975 -1.537915,-10 C 72.789192,80.93354 68.350445,78.100216 53.622804,80.391283 37.584047,82.88631 29.798214,91.78088 23.133925,115.22191 c -2.125295,7.47552 -2.649401,11.43786 -2.636211,19.93022 0.01646,10.59969 0.01646,10.59969 3.820496,14.27055 7.479934,7.21807 12.524792,8.31367 23.6619,5.13867 z m -15.357866,-2.32654 c -1.375,-0.54927 -3.85,-2.61679 -5.5,-4.5945 -2.936349,-3.51954 -3,-3.83085 -3,-14.67239 0,-11.20955 0.770452,-15.22489 5.849782,-30.48714 2.450168,-7.36221 8.948965,-15.351741 14.309017,-17.591314 5.259282,-2.197468 15.169691,-3.702868 19.528674,-2.966423 4.960903,0.83814 5.511764,2.121907 7.924717,18.468327 3.643945,24.68572 2.301524,29.41275 -12.510326,44.05227 -6.327515,6.2539 -6.740913,6.482 -13.812301,7.62115 -8.844165,1.42474 -9.622659,1.43509 -12.789563,0.17002 z m 24.601864,-9.79117 C 71.242663,128.58819 72.704826,124.31593 70.110777,104.79042 67.900505,88.153606 66.747943,84.841733 62.910596,84.100796 59.617832,83.465011 51.015789,84.911163 46.252828,86.901255 40.918565,89.13005 34.417432,97.13288 31.972026,104.48078 c -4.586882,13.78255 -5.647442,18.98561 -5.747833,28.19861 -0.09804,8.99682 0.01319,9.49408 2.898051,12.95633 4.037081,4.84507 6.401138,5.53773 14.660288,4.29545 6.672357,-1.0036 7.151207,-1.27034 13.441576,-7.48753 z m -15.057457,-1.64156 c -8.331644,-3.05069 -11.068756,-8.33856 -10.323906,-19.94491 0.371718,-5.79215 1.05329,-8.18886 3.370208,-11.85111 1.597343,-2.52486 3.550204,-4.83852 4.339691,-5.14148 0.789488,-0.30295 5.546779,-0.82089 10.571758,-1.15097 9.136326,-0.60014 9.136326,-0.60014 11.324149,2.78881 1.203302,1.86392 3.309643,4.918 4.680758,6.78683 4.058804,5.53217 3.42639,9.32923 -3.039689,18.25051 -4.487207,6.19102 -6.459024,8.03192 -10.435381,9.7425 -5.656104,2.43319 -5.309019,2.41599 -10.487588,0.51982 z m 10.318662,-3.28678 c 3.58942,-1.91286 14.136931,-15.49618 14.136931,-18.20586 0,-0.89227 -1.121821,-3.15135 -2.492935,-5.02019 -1.371115,-1.86883 -3.473071,-4.91548 -4.671014,-6.77031 -2.178079,-3.37244 -2.178079,-3.37244 -9.542259,-2.70511 -4.050298,0.36702 -7.911974,0.87753 -8.581501,1.13445 -0.669527,0.25692 -2.52869,2.53996 -4.131473,5.07341 -2.543177,4.0199 -2.914151,5.55085 -2.914151,12.02627 0,8.46565 1.609137,11.63677 7.404418,14.59186 4.272912,2.17881 6.518492,2.1529 10.791984,-0.12452 z m 62.636927,17.01953 c -3.61698,-1.18851 -9.96953,-4.89592 -11.62941,-6.78705 -8.374886,-9.54163 -11.214846,-32.37183 -5.562666,-44.71782 1.59958,-3.49394 4.642756,-7.59467 7.897246,-10.64167 4.40167,-4.121045 6.85718,-5.466657 14.55679,-7.977089 5.09407,-1.660907 10.26907,-3.017321 11.5,-3.014254 10.16849,0.02534 18.82927,8.577853 22.27282,21.994423 2.24134,8.73257 1.5801,21.36267 -1.54283,29.46901 -2.77751,7.20972 -10.1611,14.95286 -17.49195,18.34373 -2.75,1.272 -5.78139,2.7345 -6.73643,3.25 -1.93681,1.04542 -10.17512,1.09555 -13.26357,0.0807 z m 11.26357,-2.08072 c 0.95504,-0.5155 3.98643,-1.978 6.73643,-3.25 11.56797,-5.35074 19.18425,-16.95561 20.2224,-30.81274 1.13423,-15.13965 -7.18589,-31.162812 -17.6437,-33.978807 -3.41615,-0.919875 -5.16402,-0.658891 -13.25683,1.979447 -7.76345,2.53096 -10.20705,3.86777 -14.6167,7.99628 -7.46636,6.99033 -10.281696,13.54336 -10.399026,24.20494 -0.11791,10.71494 3.076756,21.472 8.064446,27.15455 4.654,5.30236 16.46834,9.09459 20.89298,6.70633 z m -13.63999,-5.06262 c -2.95704,-1.63001 -5.92955,-3.72009 -6.60558,-4.64462 -2.66795,-3.64863 -5.44687,-15.09965 -5.86541,-24.16934 -0.421316,-9.13016 -0.363666,-9.42364 2.92297,-14.88166 4.38383,-7.28008 5.8335,-8.80092 11.3315,-11.88784 6.881,-3.86344 11.9838,-5.385945 18.10559,-5.402107 4.81819,-0.01272 5.76301,0.321571 7.5,2.653587 1.09304,1.46747 3.33735,4.19971 4.98735,6.07163 3.11977,3.53938 5.33058,11.59812 5.42097,19.76023 0.0779,7.0304 -2.58203,16.89752 -5.86733,21.76541 -4.05669,6.01087 -12.97571,11.49921 -20.75872,12.77391 -3.1872,0.522 -5.79492,0.94355 -5.79492,0.93677 0,-0.007 -2.41939,-1.34596 -5.37642,-2.97597 z m 20.6937,-4.38912 c 7.81794,-4.74915 11.87303,-10.62018 13.84768,-20.0489 2.09185,-9.98833 0.36622,-20.89305 -4.08169,-25.79333 -1.6958,-1.86826 -3.97758,-4.60553 -5.07062,-6.08281 -2.31641,-3.130696 -6.52033,-3.525441 -13.10522,-1.23057 -9.6971,3.3795 -15.14668,7.64898 -19.41364,15.20961 -2.73711,4.84989 -2.98255,6.05621 -2.86267,14.06985 0.13111,8.76515 0.13111,8.76515 0.89034,2.8017 0.41758,-3.2799 1.25858,-6.1299 1.86889,-6.33333 0.61031,-0.20344 1.10965,-0.99173 1.10965,-1.75176 0,-4.66867 12.69166,-13.23029 17.77612,-11.99152 5.18003,1.26205 15.22388,6.69108 15.22388,8.229 0,0.83729 1.125,2.85933 2.5,4.49343 2.90562,3.45313 3.13506,6.82529 0.9709,14.26975 -1.14387,3.93475 -2.51476,6.05202 -5.44137,8.4039 -2.15174,1.72919 -4.3189,3.14398 -4.8159,3.14398 -0.49701,0 -1.75171,0.9371 -2.78823,2.08243 -1.50077,1.65833 -2.70337,1.98185 -5.90499,1.58852 -7.90788,-0.97151 -10.04716,-1.99663 -14.75281,-7.06937 -4.7324,-5.10158 -4.7324,-5.10158 -3.5,-1.60158 1.91405,5.43587 2.90203,6.6453 7.7324,9.46552 6.18094,3.60876 11.66922,3.09516 19.81728,-1.85452 z m -5.31728,-2.611 c 0.99549,-1.1 2.21662,-2 2.71363,-2 0.497,0 2.66416,-1.41479 4.8159,-3.14398 2.96127,-2.37973 4.29534,-4.46169 5.48816,-8.56488 1.73323,-5.9621 1.42402,-8.12893 -1.54322,-10.81424 -1.08596,-0.98278 -1.97447,-2.57965 -1.97447,-3.54859 0,-2.08729 -11.23608,-7.92831 -15.25129,-7.92831 -3.24178,0 -10.71344,5.59736 -12.73159,9.53782 -0.83442,1.6292 -1.91607,3.25171 -2.40367,3.60559 -0.4876,0.35388 -1.10174,2.88292 -1.36475,5.62011 -0.43963,4.57528 -0.19938,5.28964 2.97856,8.85659 1.90121,2.13394 4.30286,4.89239 5.33699,6.12989 1.03413,1.2375 2.79272,2.25689 3.90799,2.26531 1.11527,0.008 2.70276,0.45153 3.52776,0.98469 2.34259,1.5139 4.52943,1.17746 6.5,-1 z"
     id="path3093"
     inkscape:connector-curvature="0" />
  <path
     style="fill:#000000;fill-opacity:1;stroke:#000000;stroke-opacity:1;stroke-width:2;stroke-miterlimit:4;stroke-dasharray:none"
     d="m 35.487161,155.86061 c -3.163062,-0.56918 -6.201624,-2.2622 -9.938008,-5.53723 -2.6388,-2.31298 -4.044659,-4.11579 -4.456998,-5.71545 -0.549496,-2.13175 -0.452178,-16.29978 0.138053,-20.09857 1.283802,-8.26268 5.276167,-20.45838 8.908083,-27.212021 3.869513,-7.195455 9.077724,-12.16904 15.234502,-14.5482 4.526807,-1.749292 10.779951,-2.85344 16.051214,-2.834243 4.506614,0.01641 7.038373,0.892006 9.064788,3.135006 1.779052,1.969196 2.498895,4.263389 3.406076,10.855409 0.364631,2.649581 1.035617,6.858319 1.491079,9.352759 0.78175,4.28142 0.827668,4.87631 0.820165,10.62564 -0.0085,6.51502 -0.223659,8.2984 -1.578989,13.08769 -0.910206,3.21637 -2.062619,5.5769 -3.975422,8.143 -0.894682,1.20026 -1.800485,2.59973 -2.012894,3.10995 -0.731485,1.75706 -8.437934,9.12313 -12.876059,12.30733 -3.461055,2.4832 -6.707778,3.7966 -12.241584,4.95211 -2.501905,0.52243 -6.248321,0.69814 -8.034006,0.37682 l 0,0 z m 7.214767,-3.23677 c 4.332794,-0.66364 7.972419,-1.43318 9.118522,-1.92795 1.850031,-0.79866 4.032275,-2.66321 8.856885,-7.56749 7.950114,-8.0814 10.5141,-11.86144 12.066245,-17.78904 0.690931,-2.63865 0.934349,-9.16271 0.510192,-13.67404 -0.713245,-7.58601 -2.785754,-20.901285 -3.79574,-24.386539 -0.687163,-2.37126 -1.261557,-3.461707 -2.200688,-4.177873 -1.425161,-1.086801 -2.250348,-1.224388 -7.239633,-1.207098 -4.165199,0.01443 -5.22505,0.107537 -8.074773,0.709327 -8.452563,1.78497 -11.914536,3.819806 -16.401955,9.640541 -3.283925,4.259656 -4.734899,7.186451 -6.870409,13.858472 -3.112747,9.72523 -3.937522,13.35671 -4.431472,19.51175 -0.426182,5.31059 -0.200964,16.43166 0.369151,18.22835 1.017441,3.20642 5.498101,7.64302 8.941267,8.85334 1.476971,0.51917 2.052443,0.58528 4.098747,0.47083 1.309295,-0.0732 3.583442,-0.31739 5.053661,-0.54258 l 0,0 z"
     id="path2983"
     inkscape:connector-curvature="0" />
  <path
     style="fill:#000000;fill-opacity:1;stroke:#000000;stroke-opacity:1;stroke-width:2;stroke-miterlimit:4;stroke-dasharray:none"
     d="m 43.522801,138.28944 c -2.29218,-0.92406 -5.26249,-2.87263 -6.314744,-4.14257 -2.068126,-2.49599 -2.721987,-5.26273 -2.706359,-11.45165 0.01348,-5.33852 0.293971,-6.90298 1.722161,-9.60544 1.33168,-2.51984 4.297811,-6.50219 5.134182,-6.89318 0.760377,-0.35546 5.414606,-0.97987 10.387369,-1.39355 3.911256,-0.32538 5.209799,-0.14525 6.122813,0.84935 1.097804,1.19591 7.360258,10.56126 8.007515,11.97506 0.470066,1.02676 0.618252,1.67458 0.495246,2.16502 -0.558334,2.2262 -6.124923,9.89286 -10.349671,14.25423 -2.394236,2.47166 -3.142025,3.07544 -4.791669,3.86889 -1.60043,0.76978 -2.308098,0.95651 -3.904643,1.03035 -1.674437,0.0774 -2.211655,-0.0153 -3.8022,-0.65651 l 0,0 z"
     id="path2985"
     inkscape:connector-curvature="0" />
  <path
     style="fill:#000000;fill-opacity:1;stroke:#000000;stroke-opacity:1;stroke-width:2;stroke-miterlimit:4;stroke-dasharray:none"
     d="m 122.15156,141.47912 c -0.67493,-0.3593 -2.13179,-0.83583 -3.23746,-1.05896 -1.10567,-0.22312 -2.43082,-0.67772 -2.94477,-1.01021 -0.87923,-0.56881 -4.37229,-4.37263 -7.92309,-8.62801 -1.98383,-2.37747 -2.28927,-3.37272 -2.06917,-6.74216 0.21592,-3.30541 0.80044,-5.66322 1.68255,-6.78696 0.39161,-0.49889 1.28405,-1.84005 1.9832,-2.98036 2.08897,-3.4071 5.58202,-6.57931 9.49185,-8.62002 3.12858,-1.63294 5.34954,-1.29338 11.50471,1.75893 1.71047,0.84821 3.88641,2.1182 4.83542,2.82219 1.54928,1.14929 1.76755,1.42474 2.13756,2.69752 0.30849,1.06117 0.81031,1.85696 1.99613,3.16546 1.90103,2.09771 2.36751,3.11699 2.3676,5.17329 1e-4,2.08496 -1.12828,6.26244 -2.38341,8.82387 -1.47592,3.012 -4.73593,6.06442 -8.56456,8.01919 -0.9265,0.47304 -2.03442,1.23675 -2.46204,1.69713 -2.1507,2.3155 -4.19903,2.84849 -6.41452,1.6691 z"
     id="path2987"
     inkscape:connector-curvature="0" />
  <path
     style="fill:#000000;fill-opacity:1;stroke:#000000;stroke-opacity:1;stroke-width:2;stroke-miterlimit:4;stroke-dasharray:none"
     d="m 120.2729,152.84655 c -5.19326,-0.81534 -11.50805,-3.86684 -14.32402,-6.92181 -8.110815,-8.79919 -10.978678,-29.72142 -5.65376,-41.2465 1.4624,-3.16519 3.41666,-5.784301 6.90299,-9.25146 4.83654,-4.809939 7.17418,-6.163326 15.27846,-8.845523 4.93839,-1.634412 8.39224,-2.502812 9.93262,-2.497354 1.71753,0.0061 4.25069,0.708712 6.14621,1.704779 9.49544,4.989709 16.15473,20.646508 14.4878,34.062558 -1.07438,8.64707 -4.40306,16.07682 -9.74846,21.75902 -3.16841,3.36804 -5.7364,5.1254 -12.21355,8.35811 l -5.77809,2.8838 -2.12636,0.0582 c -1.1695,0.032 -2.47623,0.003 -2.90384,-0.0638 z m 1.65208,-2.96558 c 5.96991,-0.99554 10.12574,-2.55535 14.60973,-5.48348 6.1328,-4.00482 9.29748,-8.07662 11.55877,-14.87194 2.10391,-6.32241 2.88947,-12.19627 2.38653,-17.84471 -0.68301,-7.67068 -2.41735,-13.068909 -5.38684,-16.766858 -5.99905,-7.470712 -6.44734,-7.927132 -8.1994,-8.348039 -1.37776,-0.330987 -7.74583,-0.186294 -9.88052,0.224503 -3.19256,0.614374 -6.55629,1.835414 -10.1766,3.694125 -6.89051,3.537681 -8.78153,5.218579 -12.49027,11.102429 -4.17536,6.62414 -4.563627,7.92326 -4.29479,14.37001 0.32211,7.72427 1.32766,14.15797 3.15667,20.19688 1.29184,4.26534 2.49348,6.59559 4.02567,7.80672 2.32508,1.83787 10.06734,6.39747 10.93632,6.44066 0.26893,0.0134 1.95856,-0.22077 3.75473,-0.5203 z"
     id="path2989"
     inkscape:connector-curvature="0" />
  <path
     style="fill:#000000;fill-opacity:1;stroke:#000000;stroke-opacity:1;stroke-width:2;stroke-miterlimit:4;stroke-dasharray:none"
     d="m 116.56614,282.1447 c -0.55405,-0.53452 -1.50321,-1.84653 -2.10924,-2.91558 -1.73472,-3.06008 -3.29398,-5.28162 -6.376,-9.08409 -1.57419,-1.94219 -4.22228,-5.39977 -5.88463,-7.68351 -3.626667,-4.98232 -3.627862,-4.98308 -7.036032,-4.5114 -1.297187,0.17953 -6.148769,0.42284 -10.781291,0.54068 -10.284928,0.26163 -10.469863,0.28721 -11.272771,1.5591 -0.334314,0.52958 -2.258862,2.93318 -4.27677,5.34134 -4.823496,5.75633 -6.51683,8.29576 -7.361657,11.04002 -0.777391,2.5252 -1.463515,3.73367 -2.348836,4.13706 -0.713957,0.3253 -1.433661,-0.0498 -1.433661,-0.74719 0,-1.20643 4.387884,-8.39408 8.682925,-14.22321 3.27868,-4.44973 3.794395,-5.86985 2.402205,-6.61493 -0.310567,-0.16621 -3.596152,-0.4348 -7.693403,-0.62891 -7.816176,-0.37031 -9.298816,-0.55499 -13.785241,-1.7171 -3.959862,-1.02571 -5.598318,-1.8531 -6.280819,-3.17169 -0.671463,-1.29727 -0.908304,-5.37485 -0.934614,-16.09084 -0.02431,-9.90529 -0.373582,-15.888 -1.056614,-18.09941 -0.417549,-1.35187 -0.788635,-1.93382 -2.002657,-3.14068 -4.426698,-4.40056 -9.729235,-6.34545 -18.659711,-6.84411 -3.206444,-0.17905 -4.398282,-0.34512 -5.146094,-0.71706 -1.318155,-0.65563 -1.635847,-1.21671 -1.053358,-1.86035 0.974257,-1.07654 4.588002,-0.90277 10.240475,0.49242 3.998407,0.98692 6.671734,2.00679 11.409925,4.35288 2.04808,1.0141 3.999949,1.84381 4.337487,1.84381 1.046701,0 1.469726,-1.54516 2.426796,-8.86422 0.274056,-2.09582 0.642051,-4.29042 0.817763,-4.8769 0.395579,-1.32032 1.300682,-2.06425 2.529504,-2.07905 1.730563,-0.0208 3.167207,-0.43634 3.884319,-1.12337 0.650873,-0.62358 0.889281,-0.67947 2.897917,-0.67945 3.067074,5e-5 12.85041,1.26907 16.183449,2.0992 0.570157,0.14201 1.619763,0.51468 2.332459,0.82816 1.213591,0.5338 1.679546,0.57 7.343645,0.57063 7.296012,7.8e-4 6.912444,0.19239 7.130809,-3.56153 0.07673,-1.31919 0.329452,-5.3141 0.561589,-8.87758 0.442083,-6.78635 0.400058,-7.34718 -0.619393,-8.26547 -1.358361,-1.22359 -1.855538,-1.2516 -25.949363,-1.46226 -28.713874,-0.25105 -40.406373,-0.73528 -43.908056,-1.81836 -1.937364,-0.59924 -5.3137819,-3.22271 -6.5797127,-5.11243 -2.0196149,-3.01478 -2.7598771,-7.9141 -3.7874353,-25.06658 -0.8181806,-13.65745 -0.7657458,-18.88251 0.2366685,-23.58375 0.7263084,-3.40632 1.393098,-14.41229 1.9469437,-32.136095 0.3024362,-9.678371 0.631825,-14.468011 1.1763085,-17.104697 0.46179,-2.23624 2.2062782,-5.902373 4.3697223,-9.183202 2.42831,-3.682491 3.464376,-4.747263 5.117242,-5.259028 5.871498,-1.817944 19.643299,-2.8002 26.851369,-1.915138 5.538729,0.680088 12.694785,0.80736 17.75485,0.315776 7.265156,-0.705807 8.255621,-1.089673 9.111491,-3.531252 0.449328,-1.281813 0.499532,-2.235122 0.518324,-9.842053 0.02286,-9.250602 -0.07031,-10.004126 -1.657878,-13.409513 C 67.544602,26.69565 65.77594,24.518817 60.541822,19.256601 52.855567,11.529083 52.29063,11.182993 48.517124,11.890085 c -2.56988,0.481552 -4.277139,0.509879 -5.665227,0.094 -1.222351,-0.366226 -3.505403,-2.3360015 -3.725934,-3.2146706 -0.308792,-1.2303212 2.465824,-4.6041751 4.740943,-5.7648548 2.727318,-1.3913731 5.471707,-1.6289166 6.062635,-0.5247575 0.156537,0.2924922 0.394437,1.6989991 0.528665,3.1255713 0.346876,3.6865388 0.525897,3.9493545 4.728884,6.9423766 2.62263,1.867621 11.603039,10.393566 13.306703,12.633302 1.394062,1.832712 3.564394,6.218808 3.945544,7.973672 0.154795,0.712696 0.401219,4.852811 0.547609,9.200255 0.246901,7.332257 0.547729,11.530053 0.847787,11.830114 0.684931,0.684929 15.420276,2.164638 21.556071,2.164638 4.062241,0 4.133306,-0.04296 4.362143,-2.637075 0.174707,-1.980478 0.706213,-3.425807 1.604793,-4.363973 0.81749,-0.853491 1.3069,-2.297034 1.53639,-4.531665 0.51753,-5.039259 2.45108,-14.724265 3.49838,-17.523066 1.50637,-4.025617 8.73858,-11.902123 11.74956,-12.796286 0.69086,-0.205165 1.84328,-0.840532 2.56092,-1.411927 1.51736,-1.208137 3.20595,-2.046149 6.37038,-3.1614732 4.07404,-1.4359225 5.19395,-2.181649 6.99728,-4.6593331 1.26256,-1.7346909 1.96094,-2.2590654 3.45615,-2.5950173 1.17807,-0.2646936 3.54197,0.045696 5.33287,0.7002242 1.28469,0.4695268 1.49224,1.0236578 1.12349,2.9996692 -0.59581,3.1928404 -3.17661,6.6998542 -4.93038,6.6998542 -0.43914,0 -2.22025,-0.364019 -3.95801,-0.808931 -3.45511,-0.884594 -5.57073,-1.048982 -6.81795,-0.529768 -0.44417,0.184908 -1.33447,0.946477 -1.97843,1.692375 -1.39165,1.611942 -3.21238,2.627069 -6.80298,3.792917 -3.88023,1.25989 -5.14184,2.045015 -7.4871,4.659368 -5.01986,5.595844 -5.51106,7.176464 -6.88766,22.163908 -0.92045,10.021034 -1.01813,11.920451 -0.6329,12.307025 0.50926,0.511057 3.46634,0.750258 12.80478,1.035793 14.35109,0.438803 22.67347,0.93494 28.76699,1.714937 5.54751,0.710105 12.99397,2.61173 16.24072,4.147444 1.70008,0.804133 1.89567,0.979143 2.31163,2.068297 0.24992,0.654408 1.09085,2.25829 1.86874,3.564179 2.07156,3.477665 2.5612,4.715954 3.96194,10.019626 0.69645,2.636974 1.73218,6.466802 2.30162,8.510727 1.48702,5.337441 1.63107,6.909531 1.1888,12.973892 -0.20374,2.79372 -0.44024,8.57818 -0.52554,12.85436 -0.0853,4.27617 -0.39616,11.21524 -0.69079,15.42014 -0.46278,6.60441 -0.50634,8.68616 -0.31999,15.29056 0.3403,12.06022 0.26854,17.69383 -0.25233,19.80916 -1.03888,4.21909 -3.5718,7.48592 -7.54143,9.72656 -4.12482,2.32824 -5.67482,2.58551 -16.75027,2.78024 -9.32762,0.164 -15.0043,-0.13674 -20.74718,-1.09916 -4.40007,-0.73739 -6.44984,-0.79083 -9.08327,-0.23683 -3.37983,0.71102 -5.42301,0.91878 -11.35528,1.15466 -4.72942,0.18805 -6.14155,0.33251 -7.474002,0.76457 -1.215501,0.39414 -2.327856,0.53309 -4.276175,0.53416 -5.065126,0.003 -6.160684,0.81638 -7.326548,5.44096 -0.931636,3.69546 -0.579212,15.06255 0.508797,16.41072 0.243519,0.30175 2.676924,0.42268 13.514268,0.67161 19.27988,0.44284 25.38723,0.90102 26.59636,1.99527 0.99184,0.8976 1.56235,3.93998 2.16211,11.53 0.39317,4.97556 0.56518,5.83914 1.2815,6.43363 0.97059,0.80552 5.04181,-0.28433 12.60871,-3.37531 5.56029,-2.27131 8.99118,-3.45756 12.03452,-4.16103 4.14452,-0.958 10.75522,-0.92498 10.75522,0.0537 0,0.43664 -1.20334,1.02305 -2.61175,1.27275 -0.77289,0.13702 -3.11278,0.36431 -5.19974,0.50507 -5.69179,0.38391 -8.70178,1.28988 -14.60603,4.39624 -1.56793,0.82492 -4.84365,2.34243 -7.27938,3.37225 -6.05772,2.56118 -6.52169,3.04639 -7.08998,7.41468 -0.64231,4.93731 -0.4795,23.77867 0.22676,26.24125 0.17007,0.59301 0.14069,0.89121 -0.10816,1.09774 -1.08604,0.90133 -5.07883,1.08668 -7.23032,0.33563 -1.15126,-0.40188 -2.22655,-0.45935 -8.19298,-0.43788 -9.897,0.0356 -11.23035,0.36701 -11.23035,2.79124 0,1.40898 0.49572,2.21868 1.98622,3.24416 0.82429,0.56712 1.34269,1.22026 1.91482,2.41243 1.26606,2.6382 8.31248,11.87595 10.67195,13.99079 0.94547,0.84746 1.06312,1.08172 1.06312,2.11689 0,1.6237 -0.19127,1.98389 -1.05346,1.98389 -0.50192,0 -1.06189,-0.31165 -1.74623,-0.97186 l 0,0 z M 93.838363,255.29804 c 1.71047,-0.21093 3.401503,-0.45414 3.757851,-0.54048 3.049306,-0.73881 6.506906,-0.98924 15.938466,-1.15443 8.88079,-0.15554 10.209,-0.2316 10.94521,-0.62675 2.20664,-1.18438 2.64595,-4.8598 2.65477,-22.21057 0.006,-11.21025 -0.27154,-19.21447 -0.78533,-22.67299 -0.50078,-3.37101 -1.38031,-4.08566 -5.55811,-4.51615 -4.95421,-0.51049 -17.95358,-0.84187 -29.933221,-0.76304 l -12.051037,0.0793 -4.535336,-0.8348 c -2.494435,-0.45913 -6.051435,-1.11925 -7.904444,-1.46693 -7.078546,-1.32813 -9.185269,-1.56192 -14.124334,-1.56741 -4.525198,-0.005 -4.863734,0.0291 -6.027136,0.60708 -2.270148,1.12789 -2.848383,2.24629 -3.30117,6.38496 -1.02043,9.32723 -1.006995,40.21629 0.01926,44.29193 0.38554,1.53112 1.312018,2.31734 3.542593,3.00629 3.296575,1.01821 10.438434,1.97478 17.428743,2.33438 6.442666,0.33143 26.28793,0.0991 29.933221,-0.35039 l 8e-6,0 z M 63.775561,175.69919 c 15.546312,-0.76248 31.460583,-1.12909 73.990779,-1.7045 10.61916,-0.14367 20.18224,-0.37734 21.25129,-0.51927 2.45723,-0.32622 4.2736,-1.20446 6.22223,-3.00855 3.44934,-3.19349 3.72757,-4.93076 4.14347,-25.87245 0.15004,-7.55457 0.44468,-19.68336 0.65476,-26.95286 0.44931,-15.54739 0.48968,-26.01639 0.11082,-28.740295 -0.29084,-2.091049 -4.01879,-13.543106 -5.40074,-16.590782 -0.44687,-0.985516 -1.03751,-1.949453 -1.31253,-2.142078 -0.31421,-0.220083 -0.5652,-0.806202 -0.67542,-1.577258 -0.25483,-1.782696 -0.94739,-2.761616 -2.38392,-3.369618 -3.37787,-1.429662 -14.4608,-3.092286 -26.23823,-3.936172 -1.92428,-0.137879 -8.22192,-0.432876 -13.99475,-0.655545 -5.77284,-0.22267 -16.03566,-0.761151 -22.806269,-1.196624 -13.18669,-0.848142 -19.826749,-0.977072 -39.910961,-0.774952 -9.586711,0.09648 -10.877769,0.05733 -14.90182,-0.451825 -5.808574,-0.73495 -6.386998,-0.715886 -9.65858,0.318302 -5.219457,1.649938 -9.227199,2.276242 -13.090757,2.045738 -1.649409,-0.0984 -2.751895,-0.03745 -3.441971,0.190292 -1.676274,0.553221 -3.482851,2.663979 -5.136604,6.001479 C 8.7700257,71.65889 8.6873976,72.182071 8.4408123,84.209654 8.1744917,97.199861 6.8708037,115.831 5.7750408,122.30648 c -0.5208277,3.07786 -0.5677975,4.19804 -0.5433421,12.9581 0.027647,9.90323 0.5724411,20.80543 1.2825633,25.66614 1.0802762,7.39438 3.0516429,10.28479 8.020502,11.75962 2.876231,0.85371 4.800402,1.03099 15.679307,1.44459 10.98183,0.41751 15.176008,0.711 18.65967,1.30572 4.238993,0.72366 5.110179,0.73878 14.90182,0.25854 z"
     id="path2991"
     inkscape:connector-curvature="0" />
</svg>
